<svg data-name="Layer 1" viewBox="0 0 64 64" xmlns="http://www.w3.org/2000/svg"><path d="M32 56a24 24 0 1 1 24-24 24 24 0 0 1-24 24Zm0-46a22 22 0 1 0 22 22 22 22 0 0 0-22-22Z" fill="#de2a2a" class="fill-000000"></path><path d="M41.55 42.55a1 1 0 0 1-.71-.3L21.75 23.16a1 1 0 1 1 1.41-1.41l19.09 19.09a1 1 0 0 1 0 1.41 1 1 0 0 1-.7.3Z" fill="#de2a2a" class="fill-000000"></path><path d="M22.45 42.55a1 1 0 0 1-.7-.3 1 1 0 0 1 0-1.41l19.09-19.09a1 1 0 1 1 1.41 1.41L23.16 42.25a1 1 0 0 1-.71.3Z" fill="#de2a2a" class="fill-000000"></path></svg>